HIERARCHY
ROOT root
{
	OFFSET 0.000000 0.000000 0.000000
	CHANNELS 6 Xposition Yposition Zposition Zrotation Yrotation Xrotation
	JOINT lhip
	{
		OFFSET 0.058581 -0.082280 -0.017664
		CHANNELS 3 Zrotation Yrotation Xrotation
		JOINT lknee
		{
			OFFSET 0.043451 -0.386469 0.008037
			CHANNELS 3 Zrotation Yrotation Xrotation
			JOINT lankle
			{
				OFFSET -0.014790 -0.426874 -0.037428
				CHANNELS 3 Zrotation Yrotation Xrotation
				JOINT ltoe
				{
					OFFSET 0.041054 -0.060286 0.122042
					CHANNELS 3 Zrotation Yrotation Xrotation
					End Site
					{
						OFFSET 0.000000 0.000000 0.000000
					}
				}
			}
		}
	}
	JOINT rhip
	{
		OFFSET -0.060310 -0.090513 -0.013543
		CHANNELS 3 Zrotation Yrotation Xrotation
		JOINT rknee
		{
			OFFSET -0.043257 -0.383688 -0.004843
			CHANNELS 3 Zrotation Yrotation Xrotation
			JOINT rankle
			{
				OFFSET 0.019056 -0.420046 -0.034562
				CHANNELS 3 Zrotation Yrotation Xrotation
				JOINT rtoe
				{
					OFFSET -0.034840 -0.062106 0.130323
					CHANNELS 3 Zrotation Yrotation Xrotation
					End Site
					{
						OFFSET 0.000000 0.000000 0.000000
					}
				}
			}
		}
	}
	JOINT lowerback
	{
		OFFSET 0.004439 0.124404 -0.038385
		CHANNELS 3 Zrotation Yrotation Xrotation
		JOINT upperback
		{
			OFFSET 0.004488 0.137956 0.026820
			CHANNELS 3 Zrotation Yrotation Xrotation
			JOINT chest
			{
				OFFSET -0.002265 0.056032 0.002855
				CHANNELS 3 Zrotation Yrotation Xrotation
				JOINT lowerneck
				{
					OFFSET -0.013390 0.211636 -0.033468
					CHANNELS 3 Zrotation Yrotation Xrotation
					JOINT upperneck
					{
						OFFSET 0.010113 0.088937 0.050410
						CHANNELS 3 Zrotation Yrotation Xrotation
						End Site
						{
							OFFSET 0.000000 0.000000 0.000000
						}
					}
				}
				JOINT lclavicle
				{
					OFFSET 0.071702 0.114000 -0.018898
					CHANNELS 3 Zrotation Yrotation Xrotation
					JOINT lshoulder
					{
						OFFSET 0.122921 0.045205 -0.019046
						CHANNELS 3 Zrotation Yrotation Xrotation
						JOINT lelbow
						{
							OFFSET 0.255332 -0.015649 -0.022946
							CHANNELS 3 Zrotation Yrotation Xrotation
							JOINT lwrist
							{
								OFFSET 0.265709 0.012698 -0.007375
								CHANNELS 3 Zrotation Yrotation Xrotation
								End Site
								{
									OFFSET 0.000000 0.000000 0.000000
								}
							}
						}
					}
				}
				JOINT rclavicle
				{
					OFFSET -0.082954 0.112472 -0.023707
					CHANNELS 3 Zrotation Yrotation Xrotation
					JOINT rshoulder
					{
						OFFSET -0.113228 0.046853 -0.008472
						CHANNELS 3 Zrotation Yrotation Xrotation
						JOINT relbow
						{
							OFFSET -0.260127 -0.014369 -0.031269
							CHANNELS 3 Zrotation Yrotation Xrotation
							JOINT rwrist
							{
								OFFSET -0.269108 0.006794 -0.006027
								CHANNELS 3 Zrotation Yrotation Xrotation
								End Site
								{
									OFFSET 0.000000 0.000000 0.000000
								}
							}
						}
					}
				}
			}
		}
	}
}
MOTION
Frames: 7
Frame Time: 0.033333
1.233884 0.697160 0.991687 -88.157611 0.164792 83.692801 -1.514495 -0.868136 2.317348 -0.752118 -8.085482 9.327094 2.928859 11.038577 -16.104143 0.000000 -0.000000 0.000000 3.177167 -1.386297 2.236401 -4.264254 0.572074 10.439343 2.150246 -9.399121 -16.263436 0.000000 -0.000000 0.000000 -0.610947 3.055594 11.920245 -1.731632 -1.949080 -1.237801 -0.267378 -0.113520 2.215685 3.557638 -0.465447 -7.374232 6.737705 -4.861664 -2.792588 -21.406104 -4.936939 1.697789 -59.898378 -8.110740 10.624878 -2.389415 -13.755527 12.172156 -1.434407 -0.881158 -5.402751 17.188367 6.127122 1.386742 66.416673 -1.724957 18.688720 -1.010287 28.593291 20.431565 0.368717 -0.156699 3.006663 
1.233898 0.697133 0.991682 -88.128797 0.207180 83.716383 -1.444496 -0.725271 2.380798 -0.716260 -8.094128 9.091002 2.828455 10.895893 -16.004703 0.000000 -0.000000 0.000000 3.245714 -1.401631 2.244458 -4.309168 0.584327 10.378646 2.141341 -9.248921 -16.287600 0.000000 -0.000000 0.000000 -0.616937 3.004594 11.904800 -1.688470 -1.948394 -0.939781 -0.214174 -0.191372 2.048343 3.554342 -0.371767 -7.548691 6.749184 -4.718137 -2.869722 -21.596764 -4.969495 1.773511 -59.647810 -8.035859 10.578179 -2.490865 -13.974850 12.002081 -1.735329 -0.817589 -5.538796 17.104220 6.192784 1.438372 66.387885 -1.730750 18.875152 -1.207632 28.783816 20.241770 1.181157 -0.411994 2.564807 
1.234062 0.697065 0.991565 -88.148152 0.215318 83.748184 -1.445785 -0.715005 2.296558 -0.716413 -8.078831 9.177358 2.879711 10.863188 -15.965510 0.000000 -0.000000 0.000000 3.245546 -1.384764 2.203503 -4.338299 0.533394 10.342586 2.131440 -9.251658 -16.166557 0.000000 -0.000000 0.000000 -0.669357 2.988285 11.969501 -1.672539 -1.945984 -0.910324 -0.169531 -0.178029 2.028487 3.583202 -0.407352 -7.642849 6.808432 -4.689985 -2.926391 -21.654540 -5.049324 1.815027 -59.507159 -8.027633 10.529013 -2.719487 -14.010666 11.749330 -1.587802 -0.830119 -5.631677 17.114207 6.302150 1.485839 66.308031 -1.791660 18.884714 -1.216958 28.948917 20.004142 1.124027 -0.400643 2.396634 
1.234249 0.696851 0.991457 -88.079579 0.237651 83.826200 -1.444971 -0.811019 2.095588 -0.779737 -8.204025 9.392136 2.909119 10.904170 -16.248986 0.000000 -0.000000 0.000000 3.280609 -1.378423 2.066961 -4.331734 0.617485 10.452704 2.173188 -9.294731 -16.219392 0.000000 -0.000000 0.000000 -0.663548 2.983172 12.054098 -1.664921 -1.952877 -0.992715 -0.182755 -0.194104 2.088836 3.649562 -0.449487 -7.800059 6.767250 -4.849083 -2.959891 -21.639417 -4.894788 1.684670 -59.502175 -8.065160 10.565370 -2.780355 -14.065853 11.859047 -1.298305 -0.852920 -5.606493 17.142600 6.150515 1.334592 66.287965 -1.726673 18.939379 -1.047938 28.760679 20.221520 0.696737 -0.322870 2.653098 
1.234623 0.696862 0.991289 -88.090281 0.279779 83.886353 -1.366063 -0.825865 1.879561 -0.825566 -8.091882 9.598346 2.963878 10.843230 -16.210758 0.000000 -0.000000 0.000000 3.304067 -1.393883 1.915157 -4.292041 0.534394 10.527956 2.065606 -9.316052 -16.287506 0.000000 -0.000000 0.000000 -0.669175 3.032593 12.029643 -1.635045 -1.918956 -0.844168 -0.172423 -0.134103 2.045815 3.659757 -0.465448 -8.024609 6.768502 -4.926321 -3.031825 -21.721059 -4.988797 1.663125 -59.395571 -8.131905 10.579006 -2.756949 -14.100848 11.867298 -1.317310 -0.914351 -5.635708 17.255600 6.262916 1.412975 66.228296 -1.777489 18.935810 -1.358217 28.947337 19.902399 0.646492 -0.223617 2.529997 
1.235159 0.696914 0.991070 -88.234852 0.356906 84.025790 -1.263306 -0.866514 1.582576 -0.885883 -7.927511 9.819687 2.991141 10.831831 -16.462788 0.000000 -0.000000 0.000000 3.368701 -1.348487 1.548917 -4.199697 0.578397 10.816790 2.114776 -9.167366 -16.357744 0.000000 -0.000000 0.000000 -0.625178 3.122501 12.119320 -1.633972 -1.849111 -0.935307 -0.150508 -0.130952 2.040774 3.652910 -0.481760 -8.117037 6.749096 -5.002630 -3.187684 -21.750404 -5.002689 1.629086 -59.308594 -8.063716 10.625560 -2.770527 -14.154252 11.776925 -1.359887 -1.071408 -5.823419 17.306034 6.397466 1.502069 66.153711 -1.744646 18.984971 -1.408585 28.933306 19.738074 0.377363 -0.028434 2.433248 
1.235028 0.696850 0.990911 -88.217248 0.365842 83.978949 -1.219002 -0.935086 1.584976 -0.974410 -7.793987 9.941931 2.953709 10.734502 -16.527817 0.000000 -0.000000 0.000000 3.397616 -1.315413 1.568192 -4.215085 0.601825 10.905950 2.169008 -9.206355 -16.544579 0.000000 -0.000000 0.000000 -0.610323 3.065692 12.215758 -1.635497 -1.886937 -0.898677 -0.196482 -0.093880 2.101665 3.700255 -0.430329 -8.355310 6.695310 -5.073481 -3.219209 -21.815448 -5.040485 1.593351 -59.143215 -8.042274 10.547123 -2.701798 -14.108699 11.704994 -1.475348 -1.422137 -5.684769 17.429853 6.516715 1.578430 66.014119 -1.684091 18.997404 -1.413503 28.942636 19.768602 0.410084 0.134510 2.710045 
